<svg width="828" height="366" viewBox="0 0 828 366" fill="none" xmlns="http://www.w3.org/2000/svg">
<path d="M346.361 166.129H192.064L177.416 234.977H234.301C232.022 244.091 227.79 252.311 221.605 259.635C215.421 266.959 207.852 272.818 198.9 277.213C190.111 281.445 180.427 283.561 169.848 283.561C156.013 283.561 144.294 280.549 134.691 274.527C125.089 268.505 117.764 259.96 112.719 248.893C107.836 237.662 105.395 224.397 105.395 209.098C105.395 190.868 107.592 174.104 111.986 158.805C116.544 143.342 122.891 129.915 131.029 118.521C139.167 106.965 148.77 98.0137 159.838 91.666C170.906 85.3184 183.113 82.1445 196.459 82.1445C207.201 82.1445 216.641 84.0977 224.779 88.0039C233.08 91.7474 239.59 96.9557 244.311 103.629C249.193 110.302 251.96 117.789 252.611 126.09H351.732C351.895 125.113 351.977 123.893 351.977 122.428C352.139 120.8 352.221 119.417 352.221 118.277C352.221 102.815 348.477 88.0853 340.99 74.0879C333.666 59.9277 323.168 47.3952 309.496 36.4902C295.987 25.4225 279.874 16.7148 261.156 10.3672C242.602 3.85677 222.012 0.601562 199.389 0.601562C175.951 0.601562 154.06 4.01953 133.715 10.8555C113.37 17.5286 94.9779 27.2129 78.5391 39.9082C62.263 52.4408 48.2656 67.4961 36.5469 85.0742C24.8281 102.652 15.7949 122.265 9.44727 143.912C3.26237 165.559 0.169922 188.753 0.169922 213.492C0.169922 244.091 6.76172 270.784 19.9453 293.57C33.1289 316.194 51.5208 333.772 75.1211 346.305C98.8841 358.837 126.391 365.104 157.641 365.104C207.608 365.104 248.298 351.35 279.711 323.844C311.124 296.174 331.225 256.135 340.014 203.727L346.361 166.129ZM260.521 255.24C260.684 278.352 266.706 298.128 278.588 314.566C290.632 331.005 307.885 343.538 330.346 352.164C352.969 360.79 380.069 365.104 411.645 365.104C442.732 365.104 469.994 360.221 493.432 350.455C516.869 340.689 535.18 326.855 548.363 308.951C561.547 290.885 568.139 269.482 568.139 244.742C568.139 219.352 560.896 199.413 546.41 184.928C532.087 170.279 509.138 158.398 477.562 149.283L438.988 138.053C424.828 133.821 414.9 129.182 409.203 124.137C403.669 118.928 400.902 112.825 400.902 105.826C400.902 100.292 402.693 95.4095 406.273 91.1777C410.017 86.7832 415.225 83.3652 421.898 80.9238C428.734 78.3197 436.628 77.0176 445.58 77.0176C455.346 77.0176 463.891 78.4824 471.215 81.4121C478.702 84.3418 484.561 88.4108 488.793 93.6191C493.025 98.8275 495.222 104.931 495.385 111.93H589.867C589.704 88.6549 583.682 68.7168 571.801 52.1152C560.082 35.5137 543.236 22.8184 521.264 14.0293C499.454 5.07747 473.412 0.601562 443.139 0.601562C414.656 0.601562 389.265 5.48438 366.967 15.25C344.831 25.0156 327.416 38.8503 314.721 56.7539C302.025 74.4948 295.678 95.3281 295.678 119.254C295.678 143.342 303.327 163.443 318.627 179.557C333.926 195.507 356.306 207.958 385.766 216.91L422.631 228.141C439.232 233.186 449.975 237.988 454.857 242.545C459.903 246.939 462.426 252.392 462.426 258.902C462.426 264.762 460.391 269.889 456.322 274.283C452.416 278.678 446.801 282.177 439.477 284.781C432.315 287.223 423.689 288.443 413.598 288.443C403.995 288.443 395.124 287.06 386.986 284.293C379.011 281.363 372.501 277.376 367.455 272.33C362.41 267.285 359.398 261.588 358.422 255.24H260.521ZM498.412 255.24C498.575 278.352 504.597 298.128 516.479 314.566C528.523 331.005 545.775 343.538 568.236 352.164C590.86 360.79 617.96 365.104 649.535 365.104C680.622 365.104 707.885 360.221 731.322 350.455C754.76 340.689 773.07 326.855 786.254 308.951C799.438 290.885 806.029 269.482 806.029 244.742C806.029 219.352 798.786 199.413 784.301 184.928C769.978 170.279 747.029 158.398 715.453 149.283L676.879 138.053C662.719 133.821 652.79 129.182 647.094 124.137C641.56 118.928 638.793 112.825 638.793 105.826C638.793 100.292 640.583 95.4095 644.164 91.1777C647.908 86.7832 653.116 83.3652 659.789 80.9238C666.625 78.3197 674.519 77.0176 683.471 77.0176C693.236 77.0176 701.781 78.4824 709.105 81.4121C716.592 84.3418 722.452 88.4108 726.684 93.6191C730.915 98.8275 733.113 104.931 733.275 111.93H827.758C827.595 88.6549 821.573 68.7168 809.691 52.1152C797.973 35.5137 781.127 22.8184 759.154 14.0293C737.344 5.07747 711.303 0.601562 681.029 0.601562C652.546 0.601562 627.156 5.48438 604.857 15.25C582.722 25.0156 565.307 38.8503 552.611 56.7539C539.916 74.4948 533.568 95.3281 533.568 119.254C533.568 143.342 541.218 163.443 556.518 179.557C571.817 195.507 594.197 207.958 623.656 216.91L660.521 228.141C677.123 233.186 687.865 237.988 692.748 242.545C697.794 246.939 700.316 252.392 700.316 258.902C700.316 264.762 698.282 269.889 694.213 274.283C690.307 278.678 684.691 282.177 677.367 284.781C670.206 287.223 661.579 288.443 651.488 288.443C641.885 288.443 633.015 287.06 624.877 284.293C616.902 281.363 610.391 277.376 605.346 272.33C600.3 267.285 597.289 261.588 596.312 255.24H498.412Z" fill="#00A100"/>
</svg>
